# xmcd
#
# Track frame offsets:
#	150
#	12425
#	24337
#	37200
#	48775
#	60737
#	73912
#	83825
#	99775
#	113112
#	130112
#	144525
#	155262
#	165412
#	177087
#	188150
#	200800
#	212362
#	221875
#	235687
#
# Disc length: 3301
#
# Revision: 2
# Processed by: cddbd v1.5.1PL0 Copyright (c) Steve Scherf et al.
# Submitted via: CDex 1.50
# Normalized: r0:DSETVAR1,TDELIM( - ),TSWAP
#
DISCID=110ce314
DTITLE=Various Artist - SINGING MY SONG - Ladies from the West
DYEAR=1900
DGENRE=Country
TTITLE0=Billy Jo Spears - WHAT I´VE GOT IN MIND
TTITLE1=Tammy Wynette - STAND BY YOUR MAN
TTITLE2=Lynn Anderson - ROSE GARDEN
TTITLE3=Sammy Smith - HELP ME IT TROUGH tHE NIGHT
TTITLE4=Jody Miller - QUEEN OF THE HOUSE
TTITLE5=Donna Fargo - DADDY
TTITLE6=Kitty Wells - I CAN´T STOP LOVING YOU
TTITLE7=Billy Jo Spears - BLANKET ON THE GROUND
TTITLE8=Patty Page - TENNESSEE WALZ
TTITLE9=Lynn Anderson - BLUE BAYOU
TTITLE10=Jeannie C. Riley - HARPER VALLY P.T.A.
TTITLE11=Tammy Wynette - SINGING MY SONG
TTITLE12=The Springfields - SILVER THREADS AND GOLDEN NEEDLES
TTITLE13=Kitty Wells - AMIGOS GUITAR
TTITLE14=Billy Jo Spears - IF YOU WANT ME
TTITLE15=Patty Page - GENTLE ON MY MIND
TTITLE16=Donna Fargo - THE HAPPIEST GIRL IN THE U.S.A.
TTITLE17=Lynn Anderson - SNOWBIRD
TTITLE18=Tammy Wynette - TILL I CAN MAKE IT ON MY OWN
TTITLE19=Skeetee Davis - END OF THE WORLD
EXTD=
EXTT0=
EXTT1=
EXTT2=
EXTT3=
EXTT4=
EXTT5=
EXTT6=
EXTT7=
EXTT8=
EXTT9=
EXTT10=
EXTT11=
EXTT12=
EXTT13=
EXTT14=
EXTT15=
EXTT16=
EXTT17=
EXTT18=
EXTT19=
PLAYORDER=
